<svg width="17" height="17" viewBox="0 0 17 17" fill="none" xmlns="http://www.w3.org/2000/svg">
<path d="M15.4545 0H1.54545C0.691591 0 0 0.691591 0 1.54545V15.4545C0 16.3084 0.691591 17 1.54545 17H15.4545C16.3084 17 17 16.3084 17 15.4545V1.54545C17 0.691591 16.3084 0 15.4545 0ZM5.37355 13.9091H3.094V6.57436H5.37355V13.9091ZM4.21059 5.52577C3.47573 5.52577 2.8815 4.93 2.8815 4.19668C2.8815 3.46336 3.4765 2.86836 4.21059 2.86836C4.94314 2.86836 5.53891 3.46414 5.53891 4.19668C5.53891 4.93 4.94314 5.52577 4.21059 5.52577ZM13.9122 13.9091H11.6342V10.3422C11.6342 9.49141 11.6187 8.39723 10.4496 8.39723C9.26345 8.39723 9.08109 9.32373 9.08109 10.2804V13.9091H6.80309V6.57436H8.98991V7.57659H9.02082C9.32527 7.00014 10.0686 6.392 11.1775 6.392C13.4856 6.392 13.9122 7.91118 13.9122 9.88627V13.9091Z" fill="#D18F60"/>
</svg>
